<svg xmlns="http://www.w3.org/2000/svg" width="265.44" height="72" viewBox="0 0 265.44 72"><defs><style>.cls-1{fill:#333;}.cls-2{fill:#f97500;}</style></defs><title>Asset 1</title><g id="Layer_2" data-name="Layer 2"><g id="Layer_1-2" data-name="Layer 1"><path class="cls-1" d="M92.68,26.55h12.18v17.7h6.06v4.67H92.68V44.25h6.37v-13H92.68Zm6-5.73a3.14,3.14,0,0,1,.24-1.23,2.86,2.86,0,0,1,.67-1,3.12,3.12,0,0,1,1-.63,3.92,3.92,0,0,1,1.36-.23,3.39,3.39,0,0,1,2.43.86,3.15,3.15,0,0,1,0,4.41,3.38,3.38,0,0,1-2.43.85,3.92,3.92,0,0,1-1.36-.22,3.12,3.12,0,0,1-1-.63,2.8,2.8,0,0,1-.67-1A3.07,3.07,0,0,1,98.64,20.82Z"/><path class="cls-1" d="M136.66,37.94a17.57,17.57,0,0,1-.56,4.53,10.84,10.84,0,0,1-1.68,3.61,8.06,8.06,0,0,1-2.74,2.39,7.85,7.85,0,0,1-3.74.87,7.61,7.61,0,0,1-3.16-.62A7.18,7.18,0,0,1,122.4,47V57.53h-5.75v-31H122l.21,2.19a7.43,7.43,0,0,1,2.44-1.92,7.52,7.52,0,0,1,3.29-.68,8.23,8.23,0,0,1,3.76.82,7.56,7.56,0,0,1,2.75,2.31,10.52,10.52,0,0,1,1.69,3.6,18.16,18.16,0,0,1,.56,4.64Zm-5.74-.43a13,13,0,0,0-.26-2.64,6.57,6.57,0,0,0-.81-2.13,4.11,4.11,0,0,0-1.4-1.41,3.94,3.94,0,0,0-2.08-.52,4.68,4.68,0,0,0-2.47.59,4,4,0,0,0-1.5,1.67v9.34a4.38,4.38,0,0,0,1.5,1.69,4.49,4.49,0,0,0,2.51.63,3.86,3.86,0,0,0,2.08-.54,4.18,4.18,0,0,0,1.39-1.47,7.17,7.17,0,0,0,.79-2.16,13.63,13.63,0,0,0,.25-2.62Z"/><path class="cls-1" d="M156.41,42.78a1.74,1.74,0,0,0-.24-.91,2.3,2.3,0,0,0-.84-.73,7.51,7.51,0,0,0-1.63-.63c-.67-.19-1.53-.39-2.56-.58a24.82,24.82,0,0,1-3.59-1,11.15,11.15,0,0,1-2.78-1.43A6.47,6.47,0,0,1,143,35.59a4.87,4.87,0,0,1-.65-2.52,5.62,5.62,0,0,1,.66-2.65,6.74,6.74,0,0,1,1.9-2.21,9.61,9.61,0,0,1,3-1.51,13.13,13.13,0,0,1,4-.56,14.69,14.69,0,0,1,4.2.55,9.82,9.82,0,0,1,3.15,1.51,6.7,6.7,0,0,1,2,2.28,6.24,6.24,0,0,1,.68,2.88h-5.75a2.75,2.75,0,0,0-1-2.19,5,5,0,0,0-3.21-.88,5.29,5.29,0,0,0-3,.73,2.12,2.12,0,0,0-1,1.78,2.07,2.07,0,0,0,.21.92,1.94,1.94,0,0,0,.73.76,5.48,5.48,0,0,0,1.44.62,15.7,15.7,0,0,0,2.31.49,29.53,29.53,0,0,1,3.77.85,11.27,11.27,0,0,1,3,1.33,6.24,6.24,0,0,1,2,2,5.31,5.31,0,0,1,.71,2.79,5.51,5.51,0,0,1-.71,2.74,6.7,6.7,0,0,1-2,2.16,10.39,10.39,0,0,1-3.17,1.41,15.75,15.75,0,0,1-4.16.51,13.75,13.75,0,0,1-4.45-.66A10.37,10.37,0,0,1,144.23,47a7.36,7.36,0,0,1-2-2.42,6,6,0,0,1-.68-2.72h5.48a3.2,3.2,0,0,0,.5,1.56,3.34,3.34,0,0,0,1.12,1.06,5.16,5.16,0,0,0,1.56.59,9,9,0,0,0,1.81.18,6.2,6.2,0,0,0,3.24-.68A2,2,0,0,0,156.41,42.78Z"/><path class="cls-1" d="M177.94,21.07v5.48h8.35v4.24h-8.35v9.62a6.52,6.52,0,0,0,.27,2,3.16,3.16,0,0,0,.8,1.3,2.91,2.91,0,0,0,1.25.7,6,6,0,0,0,1.65.2q.66,0,1.35-.06t1.32-.15l1.18-.2c.37-.07.68-.14.94-.21l.56,3.95a6.57,6.57,0,0,1-1.41.61,12.21,12.21,0,0,1-1.71.43c-.61.11-1.24.19-1.89.26s-1.3.09-1.94.09a10.65,10.65,0,0,1-3.34-.49,6.4,6.4,0,0,1-2.56-1.51,6.69,6.69,0,0,1-1.64-2.6,11,11,0,0,1-.58-3.8V30.79h-5.11V26.55h5.11V21.07Z"/><path class="cls-1" d="M206.78,48.92a4.38,4.38,0,0,1-.35-1c-.1-.36-.18-.73-.25-1.13a8.1,8.1,0,0,1-1.1,1,7.32,7.32,0,0,1-1.37.79,8,8,0,0,1-1.67.54,9.29,9.29,0,0,1-2,.2,9.55,9.55,0,0,1-3.15-.5,7.4,7.4,0,0,1-2.47-1.38,6.45,6.45,0,0,1-1.62-2.12,6.83,6.83,0,0,1,2.06-8.15q2.64-1.94,7.87-1.93H206V33.93a3.26,3.26,0,0,0-1.05-2.55,4.43,4.43,0,0,0-3-.94,3.7,3.7,0,0,0-2.57.75,2.67,2.67,0,0,0-.8,2h-5.75a6.09,6.09,0,0,1,.63-2.71,6.65,6.65,0,0,1,1.84-2.25,9.21,9.21,0,0,1,3-1.54,12.87,12.87,0,0,1,4-.57,13.75,13.75,0,0,1,3.77.49,9.3,9.3,0,0,1,3,1.47,6.85,6.85,0,0,1,2,2.45,7.76,7.76,0,0,1,.72,3.43v9.59a16.31,16.31,0,0,0,.23,3,7.49,7.49,0,0,0,.66,2v.35Zm-5.48-4a6,6,0,0,0,3-.74,4.51,4.51,0,0,0,1-.76,3.9,3.9,0,0,0,.68-.85V38.69H203a8.94,8.94,0,0,0-2.3.26,4.37,4.37,0,0,0-1.55.72,2.83,2.83,0,0,0-.89,1.12A3.45,3.45,0,0,0,198,42.2a2.51,2.51,0,0,0,.82,1.93A3.5,3.5,0,0,0,201.3,44.89Z"/><path class="cls-1" d="M228.12,44.75a5.37,5.37,0,0,0,1.61-.25,4.37,4.37,0,0,0,1.34-.7,3.17,3.17,0,0,0,.9-1.1,2.72,2.72,0,0,0,.28-1.43h5.42A6.68,6.68,0,0,1,237,44.5a8,8,0,0,1-2.06,2.56,9.93,9.93,0,0,1-3,1.69,11.8,11.8,0,0,1-8.22-.27,9.3,9.3,0,0,1-3.28-2.41,10.44,10.44,0,0,1-2-3.59,14,14,0,0,1-.67-4.41v-.62a14.45,14.45,0,0,1,.66-4.42,10.16,10.16,0,0,1,2-3.58A9.5,9.5,0,0,1,223.64,27a10.91,10.91,0,0,1,4.54-.89,11.46,11.46,0,0,1,3.82.62,8.87,8.87,0,0,1,3,1.75,7.74,7.74,0,0,1,2,2.73,8.29,8.29,0,0,1,.66,3.58h-5.42a3.63,3.63,0,0,0-.25-1.57,3.56,3.56,0,0,0-.84-1.28,4.22,4.22,0,0,0-1.35-.86,4.53,4.53,0,0,0-1.71-.32,4.23,4.23,0,0,0-2.26.56,4.12,4.12,0,0,0-1.41,1.49,6.88,6.88,0,0,0-.75,2.13,14.3,14.3,0,0,0-.22,2.48v.62a14.57,14.57,0,0,0,.21,2.51,6.24,6.24,0,0,0,.74,2.13,4.11,4.11,0,0,0,1.42,1.48A4.29,4.29,0,0,0,228.12,44.75Z"/><path class="cls-1" d="M252,39.68l-2.61,2.42v6.82h-5.74V17.17h5.74V35.32l1.74-2,6.18-6.78h6.91l-8.44,9.33,9.62,13h-7.05Z"/><path class="cls-2" d="M22.35,2.69h0l.13-.06Z"/><path class="cls-2" d="M16,17a6,6,0,0,1,5.17-5.94L22.35,2.7A36.08,36.08,0,0,0,2.59,22.59l13.44-5A5.63,5.63,0,0,1,16,17Z"/><path class="cls-2" d="M24.49,41.34.23,40A35.85,35.85,0,0,0,9.6,60.46a6,6,0,0,1,5.48-3.58,6.07,6.07,0,0,1,1.77.27l8.77-14A5.75,5.75,0,0,1,24.49,41.34Z"/><path class="cls-2" d="M26.35,34.35,22.22,23H22a6,6,0,0,1-4.28-1.8L1,27.44A35.83,35.83,0,0,0,0,36l24.3,1.35A6,6,0,0,1,26.35,34.35Z"/><path class="cls-2" d="M30,45a5.16,5.16,0,0,1-.79-.06L20,59.67A5.89,5.89,0,0,1,21,63a6,6,0,0,1-2.19,4.6A35.81,35.81,0,0,0,36,72c.81,0,1.62,0,2.42-.09Z"/><path class="cls-2" d="M48,7a6,6,0,0,1,1.77-4.26,35.93,35.93,0,0,0-23.18-1.5L25.1,11.89a6.06,6.06,0,0,1,1.95,1.92L48,7.25C48,7.17,48,7.09,48,7Z"/><path class="cls-2" d="M64,44a6,6,0,0,1-5.07,5.92L54.51,66.87A36,36,0,0,0,71.89,38.33L64,43.24A6.49,6.49,0,0,1,64,44Z"/><path class="cls-2" d="M59.7,8.92a6.06,6.06,0,0,1-2.85,3.36l2.8,25.94a5.83,5.83,0,0,1,2.5,1.43l9.75-6A35.93,35.93,0,0,0,59.7,8.92Z"/><path class="cls-2" d="M55.66,38.43,52.89,12.88A6,6,0,0,1,49.54,11L27.91,17.73a6,6,0,0,1-2,3.76L30.12,33A6,6,0,0,1,36,38.36l16.64,3A6,6,0,0,1,55.66,38.43Z"/><path class="cls-2" d="M52.17,45.32,35,42.26a5.81,5.81,0,0,1-1.29,1.42l8.7,27.73a35.71,35.71,0,0,0,7.3-2.14L55,49.16A6,6,0,0,1,52.17,45.32Z"/><path class="cls-2" d="M15,60a3,3,0,0,1,.88,5.85,37.46,37.46,0,0,1-3.86-3A3,3,0,0,1,15,60ZM30,42a3,3,0,1,1,3-3A3,3,0,0,1,30,42ZM25,17a3,3,0,1,1-3-3A3,3,0,0,1,25,17ZM58,47a3,3,0,1,1,3-3,3,3,0,0,1-3,3ZM57,7a3,3,0,1,1-4.09-2.79A35.32,35.32,0,0,1,57,6.75,2.3,2.3,0,0,1,57,7Z"/></g></g></svg>
